<?xml version="1.0" encoding="utf-8"?>
<!-- Generator: Adobe Illustrator 19.1.0, SVG Export Plug-In . SVG Version: 6.00 Build 0)  -->
<svg version="1.1" id="Layer_1" xmlns="http://www.w3.org/2000/svg" xmlns:xlink="http://www.w3.org/1999/xlink" x="0px" y="0px"
	 viewBox="-21 340.7 568 113.3" style="enable-background:new -21 340.7 568 113.3;" xml:space="preserve">
<style type="text/css">
	.st0{fill:#0076BC;}
	.st1{enable-background:new    ;}
	.st2{fill:#555250;}
</style>
<path class="st0" d="M452.4,369.8c0-4.3-1-7.1-4.3-7.1c-8.9,0-17.4,18.6-20.8,35.8C440.6,397.6,452.4,384.3,452.4,369.8L452.4,369.8
	z"/>
<path class="st0" d="M523.8,380.8c-9.7,0-4.9-11.5-10.1-11.5c-5.2,0-8.3,2.6-12.7,6.6l-13.9,66h-25l4.1-19.3
	c-9.4,11.3-22,20.3-39.3,20.3c-16.3,0-27.1-8-27.1-27.6c0-20,11.3-61.8,46.9-61.8c15.5,0,19.1,8,19.1,16.7c0,20-19.1,35.4-39.9,36.6
	c-0.2,2.4-0.3,4.9-0.3,6.9c0,11.8,4.2,14.6,12.5,14.6c13.7,0,22-7.6,30.7-17.5l11.8-55.8h25l-2.3,10.8c6.1-5.2,12.7-10.8,21-10.8
	c7.8,0,12,6.4,12,13C536.3,374.2,532.3,380.8,523.8,380.8L523.8,380.8z M349.9,443c-13.2,0-21.4-6.8-21.4-20.5c0-1.9,0.2-5,0.9-8.3
	l5.9-27.8c-4.5,1.8-9.4,3.2-14.6,4c-2.8,32.1-20.1,52.3-41.5,52.3c-12.2,0-21.8-4.3-25.8-15c-8.3,13.2-17.6,15.3-24.6,15.3
	c-15.1,0-20.5-9.7-20.5-19.6c0-11.8,7.8-33.2,7.8-44.3c0-5.7-2.1-8.9-6.2-8.9c-6.3,0-10.9,7.3-13.5,16l-11.8,55.7h-25l12.7-59.9
	c0.3-1.4,0.5-2.8,0.5-4.3c0-3.8-1.4-7.6-5.2-7.6c-6.8,0-11.5,7.5-14.1,16.1l-11.8,55.7h-25l18.4-86.8h25l-1.9,9
	c7.3-8.3,15.1-9.9,21.2-9.9c9.2,0,16,4.2,17.9,14.9c8.3-12.8,17.7-14.8,24.1-14.8c11.1,0,19.3,5.7,19.3,19.6
	c0,14.1-8.3,35.1-8.3,44.8c0,4.3,1.7,7.3,6.9,7.3c6,0,9.2-3.9,12.2-9.9c0-0.3,0-0.7,0-1c0-20,11.8-61.7,47.6-61.7
	c14.9,0,22.2,9.5,22.2,27.8c0.7,0.3,1.4,0.3,1.9,0.3c4.1,0,9-1.4,13.8-3.4l4.9-23.2h25l-12.5,59c-0.5,2.4-0.9,4.7-0.9,6.3
	c0,3.5,1.7,5.7,5.9,5.7c17,0,30-38.9,30-58c-0.5,1.2-4.2,1.7-5.6,1.7c-4.2,0-6.3-5-6.3-8.9c0-5.4,3.5-9.4,10.8-9.4
	c8.3,0,10.9,7.5,10.9,15.1C399.4,394.5,385.4,443,349.9,443L349.9,443z M528.5,346.1c-1.2-0.5-2.6-0.7-4.2-0.7
	c-1.4-0.1-2.6,0.1-3.6,0.4c-3,0.5-5.8,1.3-8.4,2.5c-1.7-1.7-4-2.9-6.7-2.9c-8.3,0-16.7,0-25,0c-4.2,0-8.5,2.9-9.4,7.1
	c-0.1,0.5-0.2,1-0.3,1.5c-7.7-11.5-25.6-11.5-37.5-8.4c-10,2.5-18.2,8.7-24.7,16.4c-1.4-9.5-5.9-17.4-16.2-19.5
	c-1.1-0.4-2.4-0.6-3.8-0.5c-1.4-0.1-2.7,0.1-3.8,0.5c-4.4,0.9-8.4,2.8-11.3,5.6c-1.6-1.6-3.8-2.6-6.5-2.6c-8.3,0-16.7,0-25,0
	c-4.1,0-8.5,2.9-9.4,7.1c-1.1,5.1-2.2,10.3-3.3,15.4c-2-7.9-6-15-13.4-19.8c-11.2-7.3-26.8-4.4-38.2,0.5
	c-12.8,5.2-21.8,16.6-27.6,29.4c0.2-2.6,0.2-5.2-0.1-7.8c-1.4-15.2-12.3-24.4-27.1-25.5c-9.1-0.7-17,2.6-23.6,7.9
	c-8.3-8.5-21.7-9.6-33.4-5.2c-1.6-1.3-3.5-2.1-5.9-2.1c-8.3,0-16.7,0-25,0c-4.1,0-8.5,2.9-9.4,7.1c-6.1,28.9-12.3,57.9-18.4,86.8
	c-1.3,6,2.7,12.2,9.3,12.2c8.3,0,16.7,0,25,0c3.8,0,7.8-2.5,9.1-6.1c1.4,3.5,4.5,6.1,8.8,6.1c8.3,0,16.7,0,25,0
	c4.1,0,8.5-2.9,9.4-7.1c1.7-7.8,3.3-15.7,5-23.5c-0.3,6.9,0.8,13.8,4.9,19.8c6.3,9.2,17.7,12.7,28.5,11.7c8.3-0.8,15.1-4.3,20.8-9.5
	c11.9,10.7,30.3,11.9,45.9,4.5c8.9-4.2,15.5-11.2,20.4-19.5c3.5,25,31.9,29.3,51.9,19.5c8.5-4.2,15.3-11.1,20.5-19.1
	c0.9,3.2,2.1,6.2,3.8,9.1c7.1,12.3,22.1,16,35.3,15.1c8.1-0.5,15.7-2.9,22.5-6.7c1.4,3.3,4.5,5.8,8.7,5.8c8.3,0,16.7,0,25,0
	c4.1,0,8.5-2.9,9.4-7.1c4.4-20.9,8.8-41.7,13.2-62.6c3.6,6.4,10.1,9.7,18.5,8.1c10.8-2.1,17.3-11.2,17.8-21.8
	C546.4,357,538.5,348.5,528.5,346.1L528.5,346.1z"/>
<path class="st0" d="M307,374.2c-0.3-7.3-2.1-10.1-6.6-10.1c-12.3,0-23.1,31.8-23.1,48.8c0,11.5,2.3,14.1,8.9,14.1
	c8.5,0,17.4-15.6,20.1-36.1c-3.6-0.9-4.7-3.8-4.7-7.3C301.7,378.7,303.9,375.6,307,374.2L307,374.2z"/>
<path class="st0" d="M94,384.3c-1.6,3.2-5.5,4.4-8.7,2.8s-4.4-5.5-2.8-8.7c1.6-3.2,5.5-4.4,8.7-2.8C94.4,377.2,95.7,381.1,94,384.3
	L94,384.3z M76,375.3c-1.6,3.2-5.5,4.4-8.7,2.8s-4.4-5.5-2.8-8.7c1.6-3.2,5.5-4.4,8.7-2.8C76.3,368.2,77.6,372.1,76,375.3L76,375.3z
	 M103.8,380.5l-0.2-0.1c1.5-4.7-0.5-10-5.1-12.4l-10.4-5.3l3.3-6.1c2.1,0.3,4.3-0.7,5.4-2.6c1.4-2.5,0.4-5.7-2.1-7
	c-2.5-1.4-5.7-0.4-7,2.1c-1.1,2-0.7,4.3,0.7,5.9l-3.3,6.2l-10.3-5.3c-4.6-2.3-10.1-0.9-13,3.1c-3.1-1.5-6.8-0.3-8.4,2.8
	s-0.4,6.8,2.7,8.4c-1.5,4.7,0.5,10,5.1,12.4L85,394.7c4.6,2.3,10.1,0.9,13-3.1l0.2,0.1c3.1,1.6,6.9,0.3,8.4-2.7
	C108.2,385.9,106.9,382.1,103.8,380.5L103.8,380.5z"/>
<path class="st0" d="M84.5,399.1l-28.3-8.5c-5.5-1.7-11.3,1.5-13,7L36,422c4.7-1,9.9-1.6,15.4-1.6c15.6,0,29,4.5,34.4,10.9l5.8-19.2
	C93.2,406.6,90.1,400.8,84.5,399.1L84.5,399.1z"/>
<path class="st0" d="M71.1,445.8c-3.6,0-6.5-2.9-6.5-6.5s2.9-6.5,6.5-6.5s6.5,2.9,6.5,6.5S74.7,445.8,71.1,445.8L71.1,445.8z
	 M52.5,448c-4.9,0-8.9-4-8.9-8.9s4-8.9,8.9-8.9s8.9,4,8.9,8.9C61.3,444,57.3,448,52.5,448L52.5,448z M33.8,445.8
	c-3.6,0-6.5-2.9-6.5-6.5s2.9-6.5,6.5-6.5s6.5,2.9,6.5,6.5S37.4,445.8,33.8,445.8L33.8,445.8z M52.5,426.3c-16.3,0-29.6,6-29.6,13.3
	c0,7.4,13.2,13.3,29.6,13.3c16.3,0,29.6-6,29.6-13.3C82,432.3,68.8,426.3,52.5,426.3L52.5,426.3z"/>
<rect x="55.4" y="402.6" class="st0" width="57.9" height="9.6"/>
<path class="st0" d="M128.5,406.8c0,5.6-4.6,10.2-10.2,10.2c-5.6,0-10.2-4.6-10.2-10.2s4.6-10.2,10.2-10.2S128.5,401.1,128.5,406.8
	L128.5,406.8z"/>
<path class="st0" d="M0.3,412.7c-0.9,2.9-3,5.3-5.6,6.8c2.6,1.4,4.7,3.9,5.6,6.8c0.9-2.9,3-5.3,5.6-6.8C3.3,418,1.3,415.6,0.3,412.7
	L0.3,412.7z"/>
<polygon class="st0" points="24.5,448.3 -0.2,443.1 -0.4,445.3 "/>
<polygon class="st0" points="21.1,442.8 7.8,427.3 6.6,428.6 "/>
<polygon class="st0" points="22.4,445.8 -7.7,429.3 -8.8,432.1 "/>
<path class="st0" d="M-15.5,421.9c-0.7,2.3-2.4,4.2-4.4,5.4c2.1,1.1,3.7,3.1,4.4,5.4c0.7-2.3,2.4-4.2,4.4-5.4
	C-13.2,426.1-14.8,424.2-15.5,421.9L-15.5,421.9z"/>
</svg>
